<mxfile host="app.diagrams.net" modified="2022-03-30T12:52:35.722Z" agent="5.0 (Windows NT 10.0; Win64; x64) AppleWebKit/537.36 (KHTML, like Gecko) Chrome/99.0.4844.82 Safari/537.36" etag="4QpG3c8EmX5-qYHNKjut" version="17.2.6" type="github">
  <diagram id="XegcfTgx4QJ5H2DkW3vX" name="Page-1">
    <mxGraphModel dx="732" dy="626" grid="1" gridSize="10" guides="1" tooltips="1" connect="1" arrows="1" fold="1" page="1" pageScale="1" pageWidth="827" pageHeight="1169" math="0" shadow="0">
      <root>
        <mxCell id="0" />
        <mxCell id="1" parent="0" />
        <mxCell id="EJnHy0ilKkUglRk5VP05-1" value="UC01. 사원 정보를 추가한다." style="ellipse;whiteSpace=wrap;html=1;" vertex="1" parent="1">
          <mxGeometry x="294" y="110" width="120" height="80" as="geometry" />
        </mxCell>
        <mxCell id="EJnHy0ilKkUglRk5VP05-2" value="사원 정보 관리 담당자" style="shape=umlActor;verticalLabelPosition=bottom;verticalAlign=top;html=1;outlineConnect=0;" vertex="1" parent="1">
          <mxGeometry x="110" y="180" width="40" height="70" as="geometry" />
        </mxCell>
        <mxCell id="EJnHy0ilKkUglRk5VP05-3" value="급여 담당자" style="shape=umlActor;verticalLabelPosition=bottom;verticalAlign=top;html=1;outlineConnect=0;" vertex="1" parent="1">
          <mxGeometry x="510" y="100" width="50" height="80" as="geometry" />
        </mxCell>
        <mxCell id="EJnHy0ilKkUglRk5VP05-4" value="사원" style="shape=umlActor;verticalLabelPosition=bottom;verticalAlign=top;html=1;outlineConnect=0;" vertex="1" parent="1">
          <mxGeometry x="530" y="400" width="50" height="80" as="geometry" />
        </mxCell>
        <mxCell id="EJnHy0ilKkUglRk5VP05-9" value="조직 관리자" style="shape=umlActor;verticalLabelPosition=bottom;verticalAlign=top;html=1;outlineConnect=0;" vertex="1" parent="1">
          <mxGeometry x="530" y="260" width="50" height="80" as="geometry" />
        </mxCell>
        <mxCell id="EJnHy0ilKkUglRk5VP05-10" value="UC02. 사원 정보를 삭제한다." style="ellipse;whiteSpace=wrap;html=1;" vertex="1" parent="1">
          <mxGeometry x="294" y="220" width="120" height="80" as="geometry" />
        </mxCell>
        <mxCell id="EJnHy0ilKkUglRk5VP05-11" value="UC03. 사원 정보를 조회 한다." style="ellipse;whiteSpace=wrap;html=1;" vertex="1" parent="1">
          <mxGeometry x="300" y="420" width="120" height="80" as="geometry" />
        </mxCell>
        <mxCell id="EJnHy0ilKkUglRk5VP05-12" value="UC04. 사원 정보를 변경한다." style="ellipse;whiteSpace=wrap;html=1;" vertex="1" parent="1">
          <mxGeometry x="294" y="320" width="120" height="80" as="geometry" />
        </mxCell>
        <mxCell id="EJnHy0ilKkUglRk5VP05-14" value="UC05. 이름으로 조회한다." style="ellipse;whiteSpace=wrap;html=1;" vertex="1" parent="1">
          <mxGeometry x="70" y="310" width="120" height="80" as="geometry" />
        </mxCell>
        <mxCell id="EJnHy0ilKkUglRk5VP05-15" value="UC06. 경력 단계로 조회한다." style="ellipse;whiteSpace=wrap;html=1;" vertex="1" parent="1">
          <mxGeometry x="70" y="400" width="120" height="80" as="geometry" />
        </mxCell>
        <mxCell id="EJnHy0ilKkUglRk5VP05-16" value="" style="endArrow=classic;html=1;rounded=0;dashed=1;" edge="1" parent="1" target="EJnHy0ilKkUglRk5VP05-14">
          <mxGeometry width="50" height="50" relative="1" as="geometry">
            <mxPoint x="300" y="440" as="sourcePoint" />
            <mxPoint x="400" y="260" as="targetPoint" />
          </mxGeometry>
        </mxCell>
        <mxCell id="EJnHy0ilKkUglRk5VP05-17" value="" style="endArrow=classic;html=1;rounded=0;dashed=1;exitX=0.008;exitY=0.725;exitDx=0;exitDy=0;exitPerimeter=0;" edge="1" parent="1" source="EJnHy0ilKkUglRk5VP05-11" target="EJnHy0ilKkUglRk5VP05-19">
          <mxGeometry width="50" height="50" relative="1" as="geometry">
            <mxPoint x="350" y="310" as="sourcePoint" />
            <mxPoint x="190" y="530" as="targetPoint" />
          </mxGeometry>
        </mxCell>
        <mxCell id="EJnHy0ilKkUglRk5VP05-18" value="" style="endArrow=classic;html=1;rounded=0;dashed=1;exitX=0;exitY=0.5;exitDx=0;exitDy=0;entryX=1;entryY=0.5;entryDx=0;entryDy=0;" edge="1" parent="1" source="EJnHy0ilKkUglRk5VP05-11" target="EJnHy0ilKkUglRk5VP05-15">
          <mxGeometry width="50" height="50" relative="1" as="geometry">
            <mxPoint x="350" y="310" as="sourcePoint" />
            <mxPoint x="400" y="260" as="targetPoint" />
          </mxGeometry>
        </mxCell>
        <mxCell id="EJnHy0ilKkUglRk5VP05-19" value="UC07. 생년월일로 조회한다." style="ellipse;whiteSpace=wrap;html=1;" vertex="1" parent="1">
          <mxGeometry x="80" y="490" width="120" height="80" as="geometry" />
        </mxCell>
        <mxCell id="EJnHy0ilKkUglRk5VP05-20" value="" style="endArrow=none;html=1;rounded=0;entryX=0.017;entryY=0.663;entryDx=0;entryDy=0;entryPerimeter=0;" edge="1" parent="1" source="EJnHy0ilKkUglRk5VP05-2" target="EJnHy0ilKkUglRk5VP05-1">
          <mxGeometry width="50" height="50" relative="1" as="geometry">
            <mxPoint x="350" y="300" as="sourcePoint" />
            <mxPoint x="400" y="250" as="targetPoint" />
          </mxGeometry>
        </mxCell>
        <mxCell id="EJnHy0ilKkUglRk5VP05-21" value="" style="endArrow=none;html=1;rounded=0;exitX=1;exitY=0;exitDx=0;exitDy=0;" edge="1" parent="1" source="EJnHy0ilKkUglRk5VP05-11">
          <mxGeometry width="50" height="50" relative="1" as="geometry">
            <mxPoint x="430" y="440" as="sourcePoint" />
            <mxPoint x="510" y="200" as="targetPoint" />
          </mxGeometry>
        </mxCell>
        <mxCell id="EJnHy0ilKkUglRk5VP05-22" value="" style="endArrow=none;html=1;rounded=0;" edge="1" parent="1" source="EJnHy0ilKkUglRk5VP05-11">
          <mxGeometry width="50" height="50" relative="1" as="geometry">
            <mxPoint x="350" y="300" as="sourcePoint" />
            <mxPoint x="170" y="280" as="targetPoint" />
          </mxGeometry>
        </mxCell>
        <mxCell id="EJnHy0ilKkUglRk5VP05-23" value="" style="endArrow=none;html=1;rounded=0;exitX=0;exitY=0.413;exitDx=0;exitDy=0;exitPerimeter=0;" edge="1" parent="1" source="EJnHy0ilKkUglRk5VP05-12" target="EJnHy0ilKkUglRk5VP05-2">
          <mxGeometry width="50" height="50" relative="1" as="geometry">
            <mxPoint x="350" y="300" as="sourcePoint" />
            <mxPoint x="400" y="250" as="targetPoint" />
          </mxGeometry>
        </mxCell>
        <mxCell id="EJnHy0ilKkUglRk5VP05-25" value="" style="endArrow=none;html=1;rounded=0;exitX=0;exitY=0.5;exitDx=0;exitDy=0;" edge="1" parent="1" source="EJnHy0ilKkUglRk5VP05-10" target="EJnHy0ilKkUglRk5VP05-2">
          <mxGeometry width="50" height="50" relative="1" as="geometry">
            <mxPoint x="350" y="300" as="sourcePoint" />
            <mxPoint x="400" y="250" as="targetPoint" />
          </mxGeometry>
        </mxCell>
        <mxCell id="EJnHy0ilKkUglRk5VP05-26" value="" style="endArrow=none;html=1;rounded=0;exitX=1;exitY=0.5;exitDx=0;exitDy=0;" edge="1" parent="1" source="EJnHy0ilKkUglRk5VP05-11">
          <mxGeometry width="50" height="50" relative="1" as="geometry">
            <mxPoint x="350" y="300" as="sourcePoint" />
            <mxPoint x="520" y="350" as="targetPoint" />
          </mxGeometry>
        </mxCell>
        <mxCell id="EJnHy0ilKkUglRk5VP05-27" value="" style="endArrow=none;html=1;rounded=0;exitX=1.017;exitY=0.7;exitDx=0;exitDy=0;exitPerimeter=0;" edge="1" parent="1" source="EJnHy0ilKkUglRk5VP05-11">
          <mxGeometry width="50" height="50" relative="1" as="geometry">
            <mxPoint x="350" y="300" as="sourcePoint" />
            <mxPoint x="520" y="480" as="targetPoint" />
          </mxGeometry>
        </mxCell>
      </root>
    </mxGraphModel>
  </diagram>
</mxfile>
